<svg xmlns="http://www.w3.org/2000/svg" version="1.1" viewBox="0 0 32 32"><path fill="#3178C5" d="M0 0 C10.56 0 21.12 0 32 0 C32 10.56 32 21.12 32 32 C21.44 32 10.88 32 0 32 C0 21.44 0 10.88 0 0 Z" transform="translate(0,0)"/><path fill="#377CC7" d="M0 0 C7.26 0 14.52 0 22 0 C22 0.99 22 1.98 22 3 C20.02 3 18.04 3 16 3 C16 3.66 16 4.32 16 5 C16.804375 5.309375 17.60875 5.61875 18.4375 5.9375 C21 7 21 7 22 8 C22.31146915 10.88108963 22.22701905 12.5671713 20.87109375 15.15234375 C19 17 19 17 16.08203125 17.390625 C15.00308594 17.34421875 13.92414062 17.2978125 12.8125 17.25 C11.72582031 17.21390625 10.63914062 17.1778125 9.51953125 17.140625 C8.68808594 17.09421875 7.85664063 17.0478125 7 17 C7.33 16.01 7.66 15.02 8 14 C6.68 14 5.36 14 4 14 C4 10.37 4 6.74 4 3 C2.68 3 1.36 3 0 3 C0 2.01 0 1.02 0 0 Z" transform="translate(7,15)"/><path fill="#EDF3F9" d="M0 0 C1.670625 0.061875 1.670625 0.061875 3.375 0.125 C3.375 1.115 3.375 2.105 3.375 3.125 C1.395 3.125 -0.585 3.125 -2.625 3.125 C-2.625 3.785 -2.625 4.445 -2.625 5.125 C-1.820625 5.434375 -1.01625 5.74375 -0.1875 6.0625 C2.375 7.125 2.375 7.125 3.375 8.125 C3.5 10.625 3.5 10.625 3.375 13.125 C2.375 14.125 2.375 14.125 0.52734375 14.22265625 C-1.5234375 14.19010417 -3.57421875 14.15755208 -5.625 14.125 C-5.295 13.135 -4.965 12.145 -4.625 11.125 C-3.305 11.125 -1.985 11.125 -0.625 11.125 C-0.295 10.465 0.035 9.805 0.375 9.125 C-0.429375 8.898125 -1.23375 8.67125 -2.0625 8.4375 C-4.625 7.125 -4.625 7.125 -5.5625 4.625 C-5.583125 3.8 -5.60375 2.975 -5.625 2.125 C-3.625 0.125 -3.625 0.125 0 0 Z" transform="translate(25.625,14.875)"/><path fill="#D4E3F3" d="M0 0 C3.96 0 7.92 0 12 0 C12 0.99 12 1.98 12 3 C10.68 3 9.36 3 8 3 C8 6.63 8 10.26 8 14 C6.68 14 5.36 14 4 14 C4 10.37 4 6.74 4 3 C2.68 3 1.36 3 0 3 C0 2.01 0 1.02 0 0 Z" transform="translate(7,15)"/><path fill="#4987CC" d="M0 0 C0.598125 0.20625 1.19625 0.4125 1.8125 0.625 C1.4825 1.615 1.1525 2.605 0.8125 3.625 C-0.5075 3.625 -1.8275 3.625 -3.1875 3.625 C-3.8475 4.285 -4.5075 4.945 -5.1875 5.625 C-5.1875 4.305 -5.1875 2.985 -5.1875 1.625 C-2.1875 -0.375 -2.1875 -0.375 0 0 Z" transform="translate(24.1875,23.375)"/></svg>